<svg width="60" height="60" viewBox="0 0 60 60" fill="none" xmlns="http://www.w3.org/2000/svg">
<g id="Layer_1" clip-path="url(#clip0_6009_4093)">
<g id="Group">
<path id="Vector" d="M15.1557 59.2896C7.57402 59.2896 1.40625 53.1218 1.40625 45.5401V15.539C1.40625 7.95732 7.57402 1.78955 15.1557 1.78955H45.1568C52.7385 1.78955 58.9062 7.95732 58.9062 15.539V45.5401C58.9062 53.1218 52.7385 59.2896 45.1568 59.2896H15.1557Z" fill="url(#paint0_linear_6009_4093)"/>
<path id="Vector_2" d="M8.64414 39.4686C8.64414 38.4567 7.82319 37.6357 6.81133 37.6357C5.79946 37.6357 4.97852 38.4567 4.97852 39.4686V45.5409C4.97852 51.1617 9.53472 55.7168 15.1544 55.7168H27.9572C28.969 55.7168 29.79 54.8958 29.79 53.884C29.79 52.8721 28.969 52.0512 27.9572 52.0512L8.64302 39.4686H8.64414Z" fill="#D4DBDB"/>
<path id="Vector_3" d="M45.157 9.02734H15.156C11.56 9.02734 8.64453 11.9428 8.64453 15.5388V45.5398C8.64453 49.1358 11.56 52.0513 15.156 52.0513H45.157C48.753 52.0513 51.6685 49.1358 51.6685 45.5398V15.5388C51.6685 11.9428 48.753 9.02734 45.157 9.02734Z" fill="white"/>
<g id="Group_2">
<path id="Vector_4" d="M55.3768 15.3161C54.8119 15.3161 54.32 14.8972 54.2425 14.3222C53.9618 12.2188 52.9432 10.2613 51.372 8.80919C50.9071 8.38019 50.879 7.6547 51.308 7.19088C51.737 6.72594 52.4625 6.69786 52.9263 7.12687C54.8883 8.94059 56.1618 11.3888 56.5122 14.0201C56.5953 14.6468 56.1551 15.2229 55.5284 15.3071C55.4768 15.3139 55.4262 15.3172 55.3757 15.3172L55.3768 15.3161Z" fill="#D4DBDB"/>
<path id="Vector_5" d="M48.1185 6.80659C48.0095 6.80659 47.8983 6.79087 47.7883 6.7583C47.2324 6.59097 46.6574 6.47754 46.079 6.41914C45.4501 6.35513 44.9908 5.7936 45.0548 5.1647C45.1177 4.53579 45.6781 4.07646 46.3092 4.14048C47.0325 4.21348 47.7512 4.3561 48.4475 4.56499C49.054 4.74692 49.3976 5.38594 49.2145 5.99126C49.0663 6.48765 48.6104 6.80771 48.1185 6.80771V6.80659Z" fill="#D4DBDB"/>
</g>
<g id="Group_3">
<path id="Vector_6" d="M19.6945 47.1942C20.6086 44.5775 22.0753 42.7357 22.7862 41.9462L37.5184 41.9373C38.2259 42.7211 39.7004 44.5674 40.618 47.1942L36.9254 52.0514H23.432L19.6934 47.1942H19.6945Z" fill="url(#paint1_linear_6009_4093)"/>
<path id="Vector_7" d="M23.4333 47.1946V52.0518H18.8984C18.8984 50.4705 19.1174 49.1071 19.4543 47.9448C19.5285 47.6887 19.6093 47.4383 19.6947 47.1946H23.4333Z" fill="url(#paint2_linear_6009_4093)"/>
<path id="Vector_8" d="M41.4146 52.0518H36.9258V47.1946H40.6184C40.7037 47.4383 40.7846 47.6887 40.8587 47.9448C41.1956 49.1071 41.4146 50.4705 41.4146 52.0518Z" fill="url(#paint3_linear_6009_4093)"/>
<path id="Vector_9" d="M25.2335 43.0824L28.4264 47.2534C29.3102 48.4079 31.0487 48.4079 31.9325 47.2534L35.15 43.0498L25.2324 43.0824H25.2335Z" fill="url(#paint4_linear_6009_4093)"/>
<path id="Vector_10" d="M22.7856 41.9468C22.4296 42.3421 21.885 43.0013 21.3145 43.8885C23.2 45.034 25.3249 45.8247 27.5934 46.1672L25.2328 43.0833L22.7856 41.9468Z" fill="#495560"/>
<path id="Vector_11" d="M29.0553 43.8889C27.7413 43.7912 26.47 43.5239 25.2324 43.0825L27.5931 46.1664C28.0243 46.2315 28.4657 46.2798 28.8846 46.3113C29.5898 46.3652 30.1918 45.807 30.1918 45.1006C30.1918 44.4605 29.6943 43.936 29.0553 43.8889Z" fill="#FBCCBF"/>
<path id="Vector_12" d="M17.6263 16.7366C14.2796 20.0833 12.4355 24.5339 12.4355 29.2675H47.8767C47.8767 24.5339 46.0337 20.0844 42.6859 16.7366H17.6263Z" fill="url(#paint5_linear_6009_4093)"/>
<path id="Vector_13" d="M12.4355 29.2668V35.0775C12.4355 37.9424 14.758 40.2637 17.6229 40.2637H23.4335V29.2668H12.4355Z" fill="url(#paint6_linear_6009_4093)"/>
<path id="Vector_14" d="M47.8769 29.2668V35.0775C47.8769 37.9424 45.5544 40.2637 42.6896 40.2637H36.8789V29.2668H47.8758H47.8769Z" fill="url(#paint7_linear_6009_4093)"/>
<path id="Vector_15" d="M44.8214 33.7695C46.8521 33.7695 48.4982 32.1233 48.4982 30.0926C48.4982 28.062 46.8521 26.4158 44.8214 26.4158C42.7907 26.4158 41.1445 28.062 41.1445 30.0926C41.1445 32.1233 42.7907 33.7695 44.8214 33.7695Z" fill="url(#paint8_linear_6009_4093)"/>
<path id="Vector_16" d="M15.4913 33.7695C17.522 33.7695 19.1682 32.1233 19.1682 30.0926C19.1682 28.062 17.522 26.4158 15.4913 26.4158C13.4606 26.4158 11.8145 28.062 11.8145 30.0926C11.8145 32.1233 13.4606 33.7695 15.4913 33.7695Z" fill="url(#paint9_linear_6009_4093)"/>
<path id="Vector_17" d="M15.4922 29.1318C15.4922 21.0257 22.0699 14.4547 30.1794 14.4671C38.2653 14.4794 44.8565 21.1121 44.8206 29.1992C44.8565 37.2851 38.2653 43.919 30.1794 43.9313C22.0699 43.9437 15.4922 37.3738 15.4922 29.2666V29.1318Z" fill="url(#paint10_linear_6009_4093)"/>
<g id="Group_4">
<path id="Vector_18" d="M40.0984 34.4638C41.0319 34.4638 41.7886 33.8559 41.7886 33.1061C41.7886 32.3562 41.0319 31.7483 40.0984 31.7483C39.1649 31.7483 38.4082 32.3562 38.4082 33.1061C38.4082 33.8559 39.1649 34.4638 40.0984 34.4638Z" fill="#FFAD4D"/>
<path id="Vector_19" d="M20.2117 34.4638C21.1451 34.4638 21.9019 33.8559 21.9019 33.1061C21.9019 32.3562 21.1451 31.7483 20.2117 31.7483C19.2782 31.7483 18.5215 32.3562 18.5215 33.1061C18.5215 33.8559 19.2782 34.4638 20.2117 34.4638Z" fill="#FFAD4D"/>
<path id="Vector_20" d="M37.2008 33.1057C39.0516 33.1057 40.552 31.6053 40.552 29.7545C40.552 27.9037 39.0516 26.4033 37.2008 26.4033C35.35 26.4033 33.8496 27.9037 33.8496 29.7545C33.8496 31.6053 35.35 33.1057 37.2008 33.1057Z" fill="white"/>
<path id="Vector_21" d="M23.109 33.1057C24.9598 33.1057 26.4602 31.6053 26.4602 29.7545C26.4602 27.9037 24.9598 26.4033 23.109 26.4033C21.2582 26.4033 19.7578 27.9037 19.7578 29.7545C19.7578 31.6053 21.2582 33.1057 23.109 33.1057Z" fill="white"/>
<g id="Group_5">
<g id="Group_6">
<path id="Vector_22" d="M37.2019 31.7516C38.3046 31.7516 39.1986 30.8576 39.1986 29.7548C39.1986 28.652 38.3046 27.7581 37.2019 27.7581C36.0991 27.7581 35.2051 28.652 35.2051 29.7548C35.2051 30.8576 36.0991 31.7516 37.2019 31.7516Z" fill="#3161AD"/>
<path id="Vector_23" d="M23.1101 31.7516C24.2128 31.7516 25.1068 30.8576 25.1068 29.7548C25.1068 28.652 24.2128 27.7581 23.1101 27.7581C22.0073 27.7581 21.1133 28.652 21.1133 29.7548C21.1133 30.8576 22.0073 31.7516 23.1101 31.7516Z" fill="#3161AD"/>
</g>
<path id="Vector_24" d="M30.1567 33.0506C29.6019 33.0506 29.0472 32.8406 28.5946 32.4206C28.4306 32.269 28.4205 32.0129 28.5732 31.849C28.7248 31.685 28.9809 31.6749 29.1449 31.8276C29.7412 32.3802 30.5734 32.3802 31.1686 31.8276C31.3326 31.676 31.5886 31.685 31.7402 31.849C31.8918 32.0129 31.8828 32.269 31.7189 32.4206C31.2663 32.8406 30.7115 33.0506 30.1567 33.0506Z" fill="#3161AD"/>
</g>
</g>
<path id="Vector_25" d="M43.5503 13.5826C40.5495 12.5179 36.0349 11.4229 30.1557 11.4185C24.2766 11.4229 19.7619 12.5179 16.7612 13.5826C14.1883 14.4956 12.5655 17.0416 12.8069 19.7616L13.1921 24.1134H47.1194L47.5046 19.7616C47.746 17.0416 46.1232 14.4956 43.5503 13.5826Z" fill="url(#paint11_linear_6009_4093)"/>
<path id="Vector_26" d="M33.4039 16.9015H31.3116V14.8093C31.3116 14.3668 30.9534 14.0085 30.5109 14.0085H29.8011C29.3586 14.0085 29.0004 14.3668 29.0004 14.8093V16.9015H26.9082C26.4657 16.9015 26.1074 17.2598 26.1074 17.7022V18.412C26.1074 18.8545 26.4657 19.2127 26.9082 19.2127H29.0004V21.305C29.0004 21.7475 29.3586 22.1057 29.8011 22.1057H30.5109C30.9534 22.1057 31.3116 21.7475 31.3116 21.305V19.2127H33.4039C33.8463 19.2127 34.2046 18.8545 34.2046 18.412V17.7022C34.2046 17.2598 33.8463 16.9015 33.4039 16.9015Z" fill="white"/>
<path id="Vector_27" d="M44.4173 18.1119C44.1792 18.1119 43.9434 18.0074 43.7839 17.8075C43.5211 17.4774 43.1662 17.1988 42.7597 17.0023C42.3576 16.808 42.1892 16.324 42.3835 15.9208C42.5777 15.5188 43.0618 15.3503 43.465 15.5446C44.0894 15.8467 44.6374 16.2802 45.0507 16.7979C45.3292 17.1472 45.2719 17.657 44.9227 17.9356C44.7733 18.0546 44.5959 18.1119 44.4184 18.1119H44.4173Z" fill="#A4E6FF"/>
<path id="Vector_28" d="M40.4284 15.9638C40.3498 15.9638 40.2701 15.9525 40.1915 15.9278C39.4997 15.7167 38.754 15.5336 37.9734 15.3843C37.5343 15.3001 37.2468 14.8767 37.3311 14.4376C37.4153 13.9984 37.8387 13.7109 38.2778 13.7952C39.1145 13.9546 39.9174 14.1523 40.6643 14.3803C41.0921 14.5105 41.3325 14.9631 41.2022 15.391C41.0955 15.7392 40.7754 15.9638 40.4284 15.9638Z" fill="#A4E6FF"/>
</g>
<path id="Vector_29" d="M33.4482 6.72524H26.9345C26.2068 6.72524 25.6172 6.13564 25.6172 5.40791C25.6172 4.68018 26.2068 4.09058 26.9345 4.09058H33.4482C34.1759 4.09058 34.7655 4.68018 34.7655 5.40791C34.7655 6.13564 34.1759 6.72524 33.4482 6.72524Z" fill="#D4DBDB"/>
</g>
</g>
<defs>
<linearGradient id="paint0_linear_6009_4093" x1="30.159" y1="57.3949" x2="30.159" y2="-4.49572" gradientUnits="userSpaceOnUse">
<stop stop-color="#D4DBDB"/>
<stop offset="1" stop-color="#F3F3F3"/>
</linearGradient>
<linearGradient id="paint1_linear_6009_4093" x1="30.1584" y1="52.051" x2="30.1584" y2="41.9351" gradientUnits="userSpaceOnUse">
<stop stop-color="#3161AD"/>
<stop offset="0.98" stop-color="#6595CE"/>
</linearGradient>
<linearGradient id="paint2_linear_6009_4093" x1="21.1675" y1="52.0514" x2="21.1675" y2="47.1933" gradientUnits="userSpaceOnUse">
<stop stop-color="#FBD8CA"/>
<stop offset="0.98" stop-color="#FBC6B9"/>
</linearGradient>
<linearGradient id="paint3_linear_6009_4093" x1="39.1728" y1="52.0514" x2="39.1728" y2="47.1933" gradientUnits="userSpaceOnUse">
<stop stop-color="#FBD8CA"/>
<stop offset="0.98" stop-color="#FBC6B9"/>
</linearGradient>
<linearGradient id="paint4_linear_6009_4093" x1="30.1941" y1="48.1193" x2="30.1941" y2="43.0481" gradientUnits="userSpaceOnUse">
<stop stop-color="#FBD8CA"/>
<stop offset="0.63" stop-color="#FBD6C8"/>
<stop offset="0.86" stop-color="#FBCFC2"/>
<stop offset="1" stop-color="#FBC6B9"/>
</linearGradient>
<linearGradient id="paint5_linear_6009_4093" x1="12.4355" y1="23.002" x2="47.8767" y2="23.002" gradientUnits="userSpaceOnUse">
<stop stop-color="#3161AD"/>
<stop offset="1" stop-color="#6595CE"/>
</linearGradient>
<linearGradient id="paint6_linear_6009_4093" x1="12.4355" y1="34.7653" x2="23.4324" y2="34.7653" gradientUnits="userSpaceOnUse">
<stop stop-color="#3161AD"/>
<stop offset="1" stop-color="#6595CE"/>
</linearGradient>
<linearGradient id="paint7_linear_6009_4093" x1="36.88" y1="34.7653" x2="47.8769" y2="34.7653" gradientUnits="userSpaceOnUse">
<stop stop-color="#3161AD"/>
<stop offset="1" stop-color="#6595CE"/>
</linearGradient>
<linearGradient id="paint8_linear_6009_4093" x1="44.8242" y1="33.7677" x2="44.8242" y2="26.4124" gradientUnits="userSpaceOnUse">
<stop offset="0.02" stop-color="#FBC6B9"/>
<stop offset="1" stop-color="#FBD8CA"/>
</linearGradient>
<linearGradient id="paint9_linear_6009_4093" x1="15.4917" y1="60.662" x2="15.4917" y2="60.662" gradientUnits="userSpaceOnUse">
<stop offset="0.02" stop-color="#FBC6B9"/>
<stop offset="1" stop-color="#FBD8CA"/>
</linearGradient>
<linearGradient id="paint10_linear_6009_4093" x1="30.1586" y1="43.9289" x2="30.1586" y2="14.4642" gradientUnits="userSpaceOnUse">
<stop stop-color="#FBD8CA"/>
<stop offset="0.98" stop-color="#FBC6B9"/>
</linearGradient>
<linearGradient id="paint11_linear_6009_4093" x1="30.1574" y1="28.7732" x2="30.1574" y2="16.0775" gradientUnits="userSpaceOnUse">
<stop offset="0.02" stop-color="#91E2B9"/>
<stop offset="1" stop-color="#08A781"/>
</linearGradient>
<clipPath id="clip0_6009_4093">
<rect width="60" height="60" fill="white"/>
</clipPath>
</defs>
</svg>
