<svg width="60" height="60" viewBox="0 0 60 60" fill="none" xmlns="http://www.w3.org/2000/svg">
<g id="Layer_1">
<g id="ic">
<g id="Group">
<path id="Vector" d="M51.2395 30.5396C51.2395 27.1199 51.2776 19.9142 50.6282 12.0479C50.4482 9.87056 48.6289 8.19507 46.445 8.19507H19.5899C17.406 8.19507 15.5867 9.87148 15.4067 12.0479C14.7573 19.9142 14.7953 27.1199 14.7953 30.5396C14.7953 33.9592 14.7573 41.1649 15.4067 49.0312C15.5867 51.2085 17.406 52.884 19.5899 52.884H46.445C48.6289 52.884 50.4482 51.2076 50.6282 49.0312C51.2776 41.1649 51.2395 33.9592 51.2395 30.5396Z" fill="url(#paint0_linear_6009_4172)"/>
<path id="Vector_2" d="M42.2107 37.5754L40.5204 35.885C39.126 34.4907 39.126 32.2288 40.5204 30.8345L45.4541 25.9008C46.8485 24.5064 49.1103 24.5064 50.5047 25.9008L52.195 27.5902C53.5894 28.9846 53.5894 31.2464 52.195 32.6408L47.2613 37.5745C45.8669 38.9688 43.6051 38.9688 42.2107 37.5745V37.5754Z" fill="url(#paint1_linear_6009_4172)"/>
<path id="Vector_3" d="M51.2405 30.5393H47.9544C47.9544 30.35 47.9544 30.1598 47.9544 29.9706C47.9563 26.8645 47.9581 21.646 47.6325 15.6167C47.5861 14.7594 46.8551 14.1008 45.9978 14.1425C45.1323 14.1843 44.468 14.9227 44.5144 15.7874C44.8577 22.1461 44.8317 27.6308 44.8317 30.5384H14.7953C14.7953 33.958 14.7573 41.1637 15.4067 49.03C15.5867 51.2073 17.406 52.8828 19.5899 52.8828H46.4459C46.5248 52.8828 46.6027 52.8801 46.6797 52.8754C47.0137 52.1137 47.2243 51.2955 47.2939 50.4494C47.5685 47.1197 47.7299 43.9979 47.8245 40.9893C48.4164 40.6813 48.9731 40.2786 49.4703 39.7814L51.1792 38.0725C51.2497 34.8802 51.2405 32.2398 51.2405 30.5374V30.5393Z" fill="#D4DBDB"/>
<path id="Vector_4" d="M52.1967 27.5903L50.5064 25.9C49.7957 25.1893 48.8615 24.8423 47.931 24.8553C45.863 27.607 45.7768 34.4509 47.917 36.9205L52.1967 32.6409C53.5911 31.2465 53.5911 28.9847 52.1967 27.5903Z" fill="url(#paint2_linear_6009_4172)"/>
<path id="Vector_5" d="M47.9173 36.9202C47.9516 34.5749 47.9563 32.275 47.9554 29.9696C47.9554 28.6253 47.9572 26.8849 47.9312 24.855C47.0341 24.868 46.1407 25.2149 45.456 25.8996L40.5224 30.8333C39.128 32.2277 39.128 34.4895 40.5224 35.8839L42.2127 37.5742C43.6071 38.9686 45.8689 38.9686 47.2633 37.5742L47.9173 36.9202Z" fill="#3161AD"/>
<path id="Vector_6" d="M44.8317 30.5396C44.8317 26.9047 44.8716 19.2462 44.1814 10.8855C43.9903 8.57173 42.0569 6.78955 39.7348 6.78955H11.1912C8.86903 6.78955 6.93563 8.5708 6.74452 10.8855C6.05429 19.2462 6.09418 26.9047 6.09418 30.5396C6.09418 34.1744 6.05429 41.8329 6.74452 50.1936C6.93563 52.5074 8.86903 54.2896 11.1912 54.2896H39.7348C42.0569 54.2896 43.9903 52.5083 44.1814 50.1936C44.8716 41.8319 44.8317 34.1744 44.8317 30.5396Z" fill="url(#paint3_linear_6009_4172)"/>
<g id="Group_2">
<path id="Vector_7" d="M18.5603 46.3782C18.5603 47.0054 17.9275 47.5138 17.1473 47.5138C16.3671 47.5138 15.7344 47.0054 15.7344 46.3782C15.7344 45.7511 16.3671 45.2427 17.1473 45.2427C17.9275 45.2427 18.5603 45.7511 18.5603 46.3782Z" fill="#FFAD4D"/>
<path id="Vector_8" d="M35.1931 46.3782C35.1931 47.0054 34.5604 47.5138 33.7801 47.5138C32.9999 47.5138 32.3672 47.0054 32.3672 46.3782C32.3672 45.7511 32.9999 45.2427 33.7801 45.2427C34.5604 45.2427 35.1931 45.7511 35.1931 46.3782Z" fill="#FFAD4D"/>
<path id="Vector_9" d="M19.5703 46.3788C21.1181 46.3788 22.3729 45.124 22.3729 43.5761C22.3729 42.0282 21.1181 40.7734 19.5703 40.7734C18.0224 40.7734 16.7676 42.0282 16.7676 43.5761C16.7676 45.124 18.0224 46.3788 19.5703 46.3788Z" fill="white"/>
<path id="Vector_10" d="M19.5259 44.8387C20.2227 44.2345 20.2977 43.1798 19.6935 42.483C19.0893 41.7862 18.0346 41.7112 17.3378 42.3154C16.641 42.9196 16.566 43.9743 17.1702 44.6711C17.7744 45.3679 18.8291 45.4429 19.5259 44.8387Z" fill="#3161AD"/>
<path id="Vector_11" d="M31.3554 46.3788C32.9033 46.3788 34.1581 45.124 34.1581 43.5761C34.1581 42.0282 32.9033 40.7734 31.3554 40.7734C29.8075 40.7734 28.5527 42.0282 28.5527 43.5761C28.5527 45.124 29.8075 46.3788 31.3554 46.3788Z" fill="white"/>
<g id="Group_3">
<path id="Vector_12" d="M30.2227 45.2617C31.1449 45.2617 31.8926 44.5141 31.8926 43.5918C31.8926 42.6695 31.1449 41.9219 30.2227 41.9219C29.3004 41.9219 28.5527 42.6695 28.5527 43.5918C28.5527 44.5141 29.3004 45.2617 30.2227 45.2617Z" fill="#3161AD"/>
<path id="Vector_13" d="M26.1826 44.2573H24.7464C24.4616 44.2573 24.2111 44.4447 24.1304 44.7175C23.8771 45.5775 23.5868 47.343 25.4645 47.343C27.3422 47.343 27.0509 45.5775 26.7986 44.7175C26.7179 44.4447 26.4674 44.2573 26.1826 44.2573Z" fill="#3161AD"/>
</g>
</g>
</g>
<path id="Vector_14" d="M25.4644 37.7903C24.3585 37.7903 23.2684 37.4962 22.3129 36.9386C17.5786 34.1814 14.1627 31.1134 12.1597 27.8208C11.7608 27.164 11.9686 26.3077 12.6255 25.9088C13.2823 25.5098 14.1386 25.7177 14.5375 26.3745C16.2965 29.2672 19.384 32.0123 23.7138 34.5339C24.2453 34.8438 24.8512 35.0071 25.4653 35.0071C26.2335 35.0071 26.8569 35.6305 26.8569 36.3987C26.8569 37.1668 26.2335 37.7903 25.4653 37.7903H25.4644Z" fill="#08A781"/>
<g id="Group_4">
<path id="Vector_15" d="M25.4633 16.8439C16.7574 8.33566 2.4638 22.5875 23.5252 34.8531C24.7248 35.5517 26.2017 35.5517 27.4013 34.8531C48.4627 22.5884 34.1691 8.33566 25.4633 16.8439Z" fill="white"/>
<path id="Vector_16" d="M36.4483 20.1004C36.2136 20.1004 35.9946 19.951 35.9176 19.7154C35.7488 19.1996 35.4602 18.6902 35.0613 18.2004C34.8665 17.962 34.9018 17.6094 35.1411 17.4146C35.3795 17.2198 35.7321 17.255 35.9269 17.4944C36.414 18.0909 36.7684 18.7208 36.9799 19.3675C37.0754 19.6606 36.9159 19.9761 36.6227 20.0716C36.5652 20.0902 36.5067 20.0995 36.4492 20.0995L36.4483 20.1004Z" fill="#F3F3F3"/>
<path id="Vector_17" d="M33.8601 17.0134C33.7692 17.0134 33.6774 16.9911 33.592 16.9447C33.3861 16.8315 33.1699 16.735 32.9482 16.658C32.6569 16.556 32.5038 16.2378 32.6058 15.9465C32.7079 15.6552 33.0261 15.5021 33.3174 15.6041C33.5967 15.7015 33.8694 15.8231 34.1283 15.9659C34.3982 16.1144 34.4975 16.4539 34.3491 16.7239C34.2479 16.9095 34.0559 17.0143 33.8592 17.0143L33.8601 17.0134Z" fill="#F3F3F3"/>
<path id="Vector_18" d="M38.6078 23.9713H31.0254L29.2627 17.8724C29.1421 17.5226 28.8128 17.2888 28.4436 17.2888H28.4398C28.0697 17.2888 27.7403 17.5254 27.6225 17.8761L25.4887 25.3434L22.9523 19.571C22.8465 19.2389 22.5626 18.9866 22.2166 18.9476C21.8 18.9012 21.4169 19.1554 21.2926 19.5469L19.8852 23.9722H12.3186C11.8399 23.9722 11.4512 24.36 11.4512 24.8396C11.4512 25.3193 11.839 25.7071 12.3186 25.7071H20.5188C20.8964 25.7071 21.2304 25.4622 21.3455 25.1031L22.1183 22.6715L24.6398 28.3957C24.754 28.7528 25.0842 28.9968 25.459 28.9996C25.4618 28.9996 25.4637 28.9996 25.4665 28.9996C25.8385 28.9996 26.1697 28.7621 26.2884 28.4086L28.4556 20.843L29.5893 25.1226C29.7099 25.4724 30.0393 25.7062 30.4085 25.7062H38.6087C39.0875 25.7062 39.4762 25.3184 39.4762 24.8387C39.4762 24.36 39.0884 23.9713 38.6087 23.9713H38.6078Z" fill="url(#paint4_linear_6009_4172)"/>
<path id="Vector_19" d="M20.5924 26.4823C20.5924 26.9119 20.2445 27.2579 19.8168 27.2579H14.6679C14.307 26.7337 13.998 26.2161 13.7383 25.7058H19.8168C20.2454 25.7058 20.5924 26.0537 20.5924 26.4814V26.4823Z" fill="#F3F3F3"/>
</g>
</g>
</g>
<defs>
<linearGradient id="paint0_linear_6009_4172" x1="33.0188" y1="56.5053" x2="33.0188" y2="4.51526" gradientUnits="userSpaceOnUse">
<stop stop-color="#D4DBDB"/>
<stop offset="1" stop-color="#F3F3F3"/>
</linearGradient>
<linearGradient id="paint1_linear_6009_4172" x1="40.5828" y1="37.4885" x2="52.1981" y2="25.8732" gradientUnits="userSpaceOnUse">
<stop stop-color="#08A781"/>
<stop offset="1" stop-color="#4CC48B"/>
</linearGradient>
<linearGradient id="paint2_linear_6009_4172" x1="45.2597" y1="30.8959" x2="55.8752" y2="30.8959" gradientUnits="userSpaceOnUse">
<stop stop-color="#3161AD"/>
<stop offset="1" stop-color="#6595CE"/>
</linearGradient>
<linearGradient id="paint3_linear_6009_4172" x1="25.4637" y1="62.9448" x2="25.4637" y2="13.2448" gradientUnits="userSpaceOnUse">
<stop stop-color="#08A781"/>
<stop offset="1" stop-color="#4CC48B"/>
</linearGradient>
<linearGradient id="paint4_linear_6009_4172" x1="11.4512" y1="23.1438" x2="39.4752" y2="23.1438" gradientUnits="userSpaceOnUse">
<stop stop-color="#3161AD"/>
<stop offset="1" stop-color="#6595CE"/>
</linearGradient>
</defs>
</svg>
